name C:\Users\u0101727\Documents\MyRepositories\upper-imu-dc\Results\main_tracking\Case_42\FLX01_orientations_groundFrame.mot
datacolumns 13
datarows 14
range 2.01000000 2.14000000
endheader 
time	radius_imu_[0][0]	radius_imu_[0][1]	radius_imu_[0][2]	radius_imu_[1][0]	radius_imu_[1][1]	radius_imu_[1][2]	radius_imu_[2][0]	radius_imu_[2][1]	radius_imu_[2][2]	radius_imu_x	radius_imu_y	radius_imu_z	
          2.01000000	          0.43304783	         -0.85879876	         -0.27374124	         -0.36643348	         -0.44519839	          0.81702197	         -0.82352661	         -0.25350164	         -0.50748481	         -2.12661491	         -0.27728071	          1.10375584	
          2.02000000	          0.43898998	         -0.85329313	         -0.28138699	         -0.36789139	         -0.45642510	          0.81014323	         -0.81972174	         -0.25212491	         -0.51428524	         -2.13641737	         -0.28523920	          1.09564330	
          2.03000000	          0.44510286	         -0.84762679	         -0.28881183	         -0.36933196	         -0.46758093	          0.80309525	         -0.81576795	         -0.25079255	         -0.52117728	         -2.14644060	         -0.29298554	          1.08725795	
          2.04000000	          0.45136891	         -0.84180684	         -0.29601917	         -0.37072540	         -0.47865465	          0.79589723	         -0.81168269	         -0.24950144	         -0.52812901	         -2.15664808	         -0.30052234	          1.07861712	
          2.05000000	          0.45776917	         -0.83584063	         -0.30301457	         -0.37204000	         -0.48963504	          0.78857071	         -0.80748599	         -0.24824982	         -0.53510597	         -2.16699931	         -0.30785436	          1.06973976	
          2.06000000	          0.46428365	         -0.82973568	         -0.30980540	         -0.37324359	         -0.50051110	          0.78113882	         -0.80319980	         -0.24703711	         -0.54207265	         -2.17745151	         -0.31498835	          1.06064601	
          2.07000000	          0.47089191	         -0.82349960	         -0.31640043	         -0.37430505	         -0.51127241	          0.77362539	         -0.79884701	         -0.24586366	         -0.54899410	         -2.18796161	         -0.32193256	          1.05135668	
          2.08000000	          0.47757367	         -0.81713991	         -0.32280917	         -0.37519610	         -0.52190938	          0.76605384	         -0.79445030	         -0.24473041	         -0.55583788	         -2.19848847	         -0.32869606	          1.04189254	
          2.09000000	          0.48430976	         -0.81066397	         -0.32904101	         -0.37589298	         -0.53241353	          0.75844598	         -0.79003071	         -0.24363858	         -0.56257596	         -2.20899535	         -0.33528786	          1.03227342	
          2.10000000	          0.49108297	         -0.80407881	         -0.33510414	         -0.37637814	         -0.54277770	          0.75082079	         -0.78560614	         -0.24258943	         -0.56918657	         -2.21945229	         -0.34171576	          1.02251728	
          2.11000000	          0.49787907	         -0.79739099	         -0.34100446	         -0.37664145	         -0.55299617	          0.74319342	         -0.78118989	         -0.24158403	         -0.57565572	         -2.22983802	         -0.34798520	          1.01263929	
          2.12000000	          0.50468756	         -0.79060649	         -0.34674465	         -0.37668085	         -0.56306472	          0.73557438	         -0.77678955	         -0.24062317	         -0.58197808	         -2.24014134	         -0.35409819	          1.00265104	
          2.13000000	          0.51150211	         -0.78373066	         -0.35232348	         -0.37650225	         -0.57298051	          0.72796936	         -0.77240640	         -0.23970728	         -0.58815710	         -2.25036129	         -0.36005262	          0.99256018	
          2.14000000	          0.51832055	         -0.77676828	         -0.35773573	         -0.37611859	         -0.58274197	          0.72037949	         -0.76803555	         -0.23883643	         -0.59420413	         -2.26050638	         -0.36584203	          0.98237047	
